<svg xmlns="http://www.w3.org/2000/svg" xmlns:xlink="http://www.w3.org/1999/xlink" width="600" height="400" viewBox="0 0 2400 1600">
<defs>
  <clipPath id="clip440">
    <rect x="0" y="0" width="2400" height="1600"></rect>
  </clipPath>
</defs>
<path clip-path="url(#clip440)" d="M0 1600 L2400 1600 L2400 0 L0 0  Z" fill="#ffffff" fill-rule="evenodd" fill-opacity="1"></path>
<defs>
  <clipPath id="clip441">
    <rect x="480" y="0" width="1681" height="1600"></rect>
  </clipPath>
</defs>
<path clip-path="url(#clip440)" d="M232.389 1423.18 L2352.76 1423.18 L2352.76 47.2441 L232.389 47.2441  Z" fill="#ffffff" fill-rule="evenodd" fill-opacity="1"></path>
<defs>
  <clipPath id="clip442">
    <rect x="232" y="47" width="2121" height="1377"></rect>
  </clipPath>
</defs>
<polyline clip-path="url(#clip442)" style="stroke:#000000; stroke-linecap:round; stroke-linejoin:round; stroke-width:2; stroke-opacity:0.1; fill:none" points="258.496,1423.18 258.496,47.2441 "></polyline>
<polyline clip-path="url(#clip442)" style="stroke:#000000; stroke-linecap:round; stroke-linejoin:round; stroke-width:2; stroke-opacity:0.1; fill:none" points="597.537,1423.18 597.537,47.2441 "></polyline>
<polyline clip-path="url(#clip442)" style="stroke:#000000; stroke-linecap:round; stroke-linejoin:round; stroke-width:2; stroke-opacity:0.1; fill:none" points="936.579,1423.18 936.579,47.2441 "></polyline>
<polyline clip-path="url(#clip442)" style="stroke:#000000; stroke-linecap:round; stroke-linejoin:round; stroke-width:2; stroke-opacity:0.1; fill:none" points="1275.62,1423.18 1275.62,47.2441 "></polyline>
<polyline clip-path="url(#clip442)" style="stroke:#000000; stroke-linecap:round; stroke-linejoin:round; stroke-width:2; stroke-opacity:0.1; fill:none" points="1614.66,1423.18 1614.66,47.2441 "></polyline>
<polyline clip-path="url(#clip442)" style="stroke:#000000; stroke-linecap:round; stroke-linejoin:round; stroke-width:2; stroke-opacity:0.1; fill:none" points="1953.7,1423.18 1953.7,47.2441 "></polyline>
<polyline clip-path="url(#clip442)" style="stroke:#000000; stroke-linecap:round; stroke-linejoin:round; stroke-width:2; stroke-opacity:0.1; fill:none" points="2292.75,1423.18 2292.75,47.2441 "></polyline>
<polyline clip-path="url(#clip440)" style="stroke:#000000; stroke-linecap:round; stroke-linejoin:round; stroke-width:4; stroke-opacity:1; fill:none" points="232.389,1423.18 2352.76,1423.18 "></polyline>
<polyline clip-path="url(#clip440)" style="stroke:#000000; stroke-linecap:round; stroke-linejoin:round; stroke-width:4; stroke-opacity:1; fill:none" points="258.496,1423.18 258.496,1404.28 "></polyline>
<polyline clip-path="url(#clip440)" style="stroke:#000000; stroke-linecap:round; stroke-linejoin:round; stroke-width:4; stroke-opacity:1; fill:none" points="597.537,1423.18 597.537,1404.28 "></polyline>
<polyline clip-path="url(#clip440)" style="stroke:#000000; stroke-linecap:round; stroke-linejoin:round; stroke-width:4; stroke-opacity:1; fill:none" points="936.579,1423.18 936.579,1404.28 "></polyline>
<polyline clip-path="url(#clip440)" style="stroke:#000000; stroke-linecap:round; stroke-linejoin:round; stroke-width:4; stroke-opacity:1; fill:none" points="1275.62,1423.18 1275.62,1404.28 "></polyline>
<polyline clip-path="url(#clip440)" style="stroke:#000000; stroke-linecap:round; stroke-linejoin:round; stroke-width:4; stroke-opacity:1; fill:none" points="1614.66,1423.18 1614.66,1404.28 "></polyline>
<polyline clip-path="url(#clip440)" style="stroke:#000000; stroke-linecap:round; stroke-linejoin:round; stroke-width:4; stroke-opacity:1; fill:none" points="1953.7,1423.18 1953.7,1404.28 "></polyline>
<polyline clip-path="url(#clip440)" style="stroke:#000000; stroke-linecap:round; stroke-linejoin:round; stroke-width:4; stroke-opacity:1; fill:none" points="2292.75,1423.18 2292.75,1404.28 "></polyline>
<path clip-path="url(#clip440)" d="M258.496 1454.1 Q254.884 1454.1 253.056 1457.66 Q251.25 1461.2 251.25 1468.33 Q251.25 1475.44 253.056 1479.01 Q254.884 1482.55 258.496 1482.55 Q262.13 1482.55 263.935 1479.01 Q265.764 1475.44 265.764 1468.33 Q265.764 1461.2 263.935 1457.66 Q262.13 1454.1 258.496 1454.1 M258.496 1450.39 Q264.306 1450.39 267.361 1455 Q270.44 1459.58 270.44 1468.33 Q270.44 1477.06 267.361 1481.67 Q264.306 1486.25 258.496 1486.25 Q252.685 1486.25 249.607 1481.67 Q246.551 1477.06 246.551 1468.33 Q246.551 1459.58 249.607 1455 Q252.685 1450.39 258.496 1450.39 Z" fill="#000000" fill-rule="nonzero" fill-opacity="1"></path><path clip-path="url(#clip440)" d="M572.225 1481.64 L579.864 1481.64 L579.864 1455.28 L571.554 1456.95 L571.554 1452.69 L579.817 1451.02 L584.493 1451.02 L584.493 1481.64 L592.132 1481.64 L592.132 1485.58 L572.225 1485.58 L572.225 1481.64 Z" fill="#000000" fill-rule="nonzero" fill-opacity="1"></path><path clip-path="url(#clip440)" d="M611.576 1454.1 Q607.965 1454.1 606.137 1457.66 Q604.331 1461.2 604.331 1468.33 Q604.331 1475.44 606.137 1479.01 Q607.965 1482.55 611.576 1482.55 Q615.211 1482.55 617.016 1479.01 Q618.845 1475.44 618.845 1468.33 Q618.845 1461.2 617.016 1457.66 Q615.211 1454.1 611.576 1454.1 M611.576 1450.39 Q617.387 1450.39 620.442 1455 Q623.521 1459.58 623.521 1468.33 Q623.521 1477.06 620.442 1481.67 Q617.387 1486.25 611.576 1486.25 Q605.766 1486.25 602.688 1481.67 Q599.632 1477.06 599.632 1468.33 Q599.632 1459.58 602.688 1455 Q605.766 1450.39 611.576 1450.39 Z" fill="#000000" fill-rule="nonzero" fill-opacity="1"></path><path clip-path="url(#clip440)" d="M915.352 1481.64 L931.671 1481.64 L931.671 1485.58 L909.727 1485.58 L909.727 1481.64 Q912.389 1478.89 916.973 1474.26 Q921.579 1469.61 922.76 1468.27 Q925.005 1465.74 925.884 1464.01 Q926.787 1462.25 926.787 1460.56 Q926.787 1457.8 924.843 1456.07 Q922.922 1454.33 919.82 1454.33 Q917.621 1454.33 915.167 1455.09 Q912.736 1455.86 909.959 1457.41 L909.959 1452.69 Q912.783 1451.55 915.236 1450.97 Q917.69 1450.39 919.727 1450.39 Q925.097 1450.39 928.292 1453.08 Q931.486 1455.77 931.486 1460.26 Q931.486 1462.39 930.676 1464.31 Q929.889 1466.2 927.783 1468.8 Q927.204 1469.47 924.102 1472.69 Q921 1475.88 915.352 1481.64 Z" fill="#000000" fill-rule="nonzero" fill-opacity="1"></path><path clip-path="url(#clip440)" d="M951.486 1454.1 Q947.875 1454.1 946.046 1457.66 Q944.241 1461.2 944.241 1468.33 Q944.241 1475.44 946.046 1479.01 Q947.875 1482.55 951.486 1482.55 Q955.12 1482.55 956.926 1479.01 Q958.755 1475.44 958.755 1468.33 Q958.755 1461.2 956.926 1457.66 Q955.12 1454.1 951.486 1454.1 M951.486 1450.39 Q957.296 1450.39 960.352 1455 Q963.431 1459.58 963.431 1468.33 Q963.431 1477.06 960.352 1481.67 Q957.296 1486.25 951.486 1486.25 Q945.676 1486.25 942.597 1481.67 Q939.542 1477.06 939.542 1468.33 Q939.542 1459.58 942.597 1455 Q945.676 1450.39 951.486 1450.39 Z" fill="#000000" fill-rule="nonzero" fill-opacity="1"></path><path clip-path="url(#clip440)" d="M1264.46 1466.95 Q1267.82 1467.66 1269.69 1469.93 Q1271.59 1472.2 1271.59 1475.53 Q1271.59 1480.65 1268.07 1483.45 Q1264.56 1486.25 1258.07 1486.25 Q1255.9 1486.25 1253.58 1485.81 Q1251.29 1485.39 1248.84 1484.54 L1248.84 1480.02 Q1250.78 1481.16 1253.1 1481.74 Q1255.41 1482.32 1257.94 1482.32 Q1262.33 1482.32 1264.63 1480.58 Q1266.94 1478.84 1266.94 1475.53 Q1266.94 1472.48 1264.79 1470.77 Q1262.66 1469.03 1258.84 1469.03 L1254.81 1469.03 L1254.81 1465.19 L1259.02 1465.19 Q1262.47 1465.19 1264.3 1463.82 Q1266.13 1462.43 1266.13 1459.84 Q1266.13 1457.18 1264.23 1455.77 Q1262.36 1454.33 1258.84 1454.33 Q1256.92 1454.33 1254.72 1454.75 Q1252.52 1455.16 1249.88 1456.04 L1249.88 1451.88 Q1252.54 1451.14 1254.86 1450.77 Q1257.19 1450.39 1259.25 1450.39 Q1264.58 1450.39 1267.68 1452.83 Q1270.78 1455.23 1270.78 1459.35 Q1270.78 1462.22 1269.14 1464.21 Q1267.5 1466.18 1264.46 1466.95 Z" fill="#000000" fill-rule="nonzero" fill-opacity="1"></path><path clip-path="url(#clip440)" d="M1290.46 1454.1 Q1286.85 1454.1 1285.02 1457.66 Q1283.21 1461.2 1283.21 1468.33 Q1283.21 1475.44 1285.02 1479.01 Q1286.85 1482.55 1290.46 1482.55 Q1294.09 1482.55 1295.9 1479.01 Q1297.73 1475.44 1297.73 1468.33 Q1297.73 1461.2 1295.9 1457.66 Q1294.09 1454.1 1290.46 1454.1 M1290.46 1450.39 Q1296.27 1450.39 1299.32 1455 Q1302.4 1459.58 1302.4 1468.33 Q1302.4 1477.06 1299.32 1481.67 Q1296.27 1486.25 1290.46 1486.25 Q1284.65 1486.25 1281.57 1481.67 Q1278.51 1477.06 1278.51 1468.33 Q1278.51 1459.58 1281.57 1455 Q1284.65 1450.39 1290.46 1450.39 Z" fill="#000000" fill-rule="nonzero" fill-opacity="1"></path><path clip-path="url(#clip440)" d="M1602.83 1455.09 L1591.03 1473.54 L1602.83 1473.54 L1602.83 1455.09 M1601.61 1451.02 L1607.49 1451.02 L1607.49 1473.54 L1612.42 1473.54 L1612.42 1477.43 L1607.49 1477.43 L1607.49 1485.58 L1602.83 1485.58 L1602.83 1477.43 L1587.23 1477.43 L1587.23 1472.92 L1601.61 1451.02 Z" fill="#000000" fill-rule="nonzero" fill-opacity="1"></path><path clip-path="url(#clip440)" d="M1630.15 1454.1 Q1626.54 1454.1 1624.71 1457.66 Q1622.9 1461.2 1622.9 1468.33 Q1622.9 1475.44 1624.71 1479.01 Q1626.54 1482.55 1630.15 1482.55 Q1633.78 1482.55 1635.59 1479.01 Q1637.42 1475.44 1637.42 1468.33 Q1637.42 1461.2 1635.59 1457.66 Q1633.78 1454.1 1630.15 1454.1 M1630.15 1450.39 Q1635.96 1450.39 1639.01 1455 Q1642.09 1459.58 1642.09 1468.33 Q1642.09 1477.06 1639.01 1481.67 Q1635.96 1486.25 1630.15 1486.25 Q1624.34 1486.25 1621.26 1481.67 Q1618.2 1477.06 1618.2 1468.33 Q1618.2 1459.58 1621.26 1455 Q1624.34 1450.39 1630.15 1450.39 Z" fill="#000000" fill-rule="nonzero" fill-opacity="1"></path><path clip-path="url(#clip440)" d="M1928.4 1451.02 L1946.76 1451.02 L1946.76 1454.96 L1932.69 1454.96 L1932.69 1463.43 Q1933.7 1463.08 1934.72 1462.92 Q1935.74 1462.73 1936.76 1462.73 Q1942.55 1462.73 1945.93 1465.9 Q1949.31 1469.08 1949.31 1474.49 Q1949.31 1480.07 1945.83 1483.17 Q1942.36 1486.25 1936.04 1486.25 Q1933.87 1486.25 1931.6 1485.88 Q1929.35 1485.51 1926.94 1484.77 L1926.94 1480.07 Q1929.03 1481.2 1931.25 1481.76 Q1933.47 1482.32 1935.95 1482.32 Q1939.95 1482.32 1942.29 1480.21 Q1944.63 1478.1 1944.63 1474.49 Q1944.63 1470.88 1942.29 1468.77 Q1939.95 1466.67 1935.95 1466.67 Q1934.07 1466.67 1932.2 1467.08 Q1930.35 1467.5 1928.4 1468.38 L1928.4 1451.02 Z" fill="#000000" fill-rule="nonzero" fill-opacity="1"></path><path clip-path="url(#clip440)" d="M1968.52 1454.1 Q1964.91 1454.1 1963.08 1457.66 Q1961.27 1461.2 1961.27 1468.33 Q1961.27 1475.44 1963.08 1479.01 Q1964.91 1482.55 1968.52 1482.55 Q1972.15 1482.55 1973.96 1479.01 Q1975.79 1475.44 1975.79 1468.33 Q1975.79 1461.2 1973.96 1457.66 Q1972.15 1454.1 1968.52 1454.1 M1968.52 1450.39 Q1974.33 1450.39 1977.38 1455 Q1980.46 1459.58 1980.46 1468.33 Q1980.46 1477.06 1977.38 1481.67 Q1974.33 1486.25 1968.52 1486.25 Q1962.71 1486.25 1959.63 1481.67 Q1956.57 1477.06 1956.57 1468.33 Q1956.57 1459.58 1959.63 1455 Q1962.71 1450.39 1968.52 1450.39 Z" fill="#000000" fill-rule="nonzero" fill-opacity="1"></path><path clip-path="url(#clip440)" d="M2278.15 1466.44 Q2275 1466.44 2273.15 1468.59 Q2271.32 1470.74 2271.32 1474.49 Q2271.32 1478.22 2273.15 1480.39 Q2275 1482.55 2278.15 1482.55 Q2281.3 1482.55 2283.13 1480.39 Q2284.98 1478.22 2284.98 1474.49 Q2284.98 1470.74 2283.13 1468.59 Q2281.3 1466.44 2278.15 1466.44 M2287.43 1451.78 L2287.43 1456.04 Q2285.67 1455.21 2283.87 1454.77 Q2282.09 1454.33 2280.33 1454.33 Q2275.7 1454.33 2273.24 1457.45 Q2270.81 1460.58 2270.47 1466.9 Q2271.83 1464.89 2273.89 1463.82 Q2275.95 1462.73 2278.43 1462.73 Q2283.64 1462.73 2286.65 1465.9 Q2289.68 1469.05 2289.68 1474.49 Q2289.68 1479.82 2286.53 1483.03 Q2283.38 1486.25 2278.15 1486.25 Q2272.16 1486.25 2268.98 1481.67 Q2265.81 1477.06 2265.81 1468.33 Q2265.81 1460.14 2269.7 1455.28 Q2273.59 1450.39 2280.14 1450.39 Q2281.9 1450.39 2283.68 1450.74 Q2285.49 1451.09 2287.43 1451.78 Z" fill="#000000" fill-rule="nonzero" fill-opacity="1"></path><path clip-path="url(#clip440)" d="M2307.73 1454.1 Q2304.12 1454.1 2302.29 1457.66 Q2300.49 1461.2 2300.49 1468.33 Q2300.49 1475.44 2302.29 1479.01 Q2304.12 1482.55 2307.73 1482.55 Q2311.37 1482.55 2313.17 1479.01 Q2315 1475.44 2315 1468.33 Q2315 1461.2 2313.17 1457.66 Q2311.37 1454.1 2307.73 1454.1 M2307.73 1450.39 Q2313.54 1450.39 2316.6 1455 Q2319.68 1459.58 2319.68 1468.33 Q2319.68 1477.06 2316.6 1481.67 Q2313.54 1486.25 2307.73 1486.25 Q2301.92 1486.25 2298.85 1481.67 Q2295.79 1477.06 2295.79 1468.33 Q2295.79 1459.58 2298.85 1455 Q2301.92 1450.39 2307.73 1450.39 Z" fill="#000000" fill-rule="nonzero" fill-opacity="1"></path><path clip-path="url(#clip440)" d="M1123.8 1520.52 L1164 1520.52 L1164 1525.93 L1147.13 1525.93 L1147.13 1568.04 L1140.67 1568.04 L1140.67 1525.93 L1123.8 1525.93 L1123.8 1520.52 Z" fill="#000000" fill-rule="nonzero" fill-opacity="1"></path><path clip-path="url(#clip440)" d="M1167.95 1532.4 L1173.8 1532.4 L1173.8 1568.04 L1167.95 1568.04 L1167.95 1532.4 M1167.95 1518.52 L1173.8 1518.52 L1173.8 1525.93 L1167.95 1525.93 L1167.95 1518.52 Z" fill="#000000" fill-rule="nonzero" fill-opacity="1"></path><path clip-path="url(#clip440)" d="M1209.52 1537.81 L1209.52 1518.52 L1215.37 1518.52 L1215.37 1568.04 L1209.52 1568.04 L1209.52 1562.7 Q1207.67 1565.88 1204.84 1567.44 Q1202.04 1568.97 1198.09 1568.97 Q1191.63 1568.97 1187.55 1563.81 Q1183.51 1558.65 1183.51 1550.25 Q1183.51 1541.85 1187.55 1536.69 Q1191.63 1531.54 1198.09 1531.54 Q1202.04 1531.54 1204.84 1533.1 Q1207.67 1534.62 1209.52 1537.81 M1189.56 1550.25 Q1189.56 1556.71 1192.2 1560.4 Q1194.87 1564.07 1199.52 1564.07 Q1204.17 1564.07 1206.84 1560.4 Q1209.52 1556.71 1209.52 1550.25 Q1209.52 1543.79 1206.84 1540.13 Q1204.17 1536.44 1199.52 1536.44 Q1194.87 1536.44 1192.2 1540.13 Q1189.56 1543.79 1189.56 1550.25 Z" fill="#000000" fill-rule="nonzero" fill-opacity="1"></path><path clip-path="url(#clip440)" d="M1247.61 1518.52 L1261.11 1518.52 L1261.11 1523.07 L1253.47 1523.07 L1253.47 1572.09 L1261.11 1572.09 L1261.11 1576.64 L1247.61 1576.64 L1247.61 1518.52 Z" fill="#000000" fill-rule="nonzero" fill-opacity="1"></path><path clip-path="url(#clip440)" d="M1279.38 1522.27 L1279.38 1532.4 L1291.44 1532.4 L1291.44 1536.95 L1279.38 1536.95 L1279.38 1556.3 Q1279.38 1560.66 1280.56 1561.9 Q1281.77 1563.14 1285.43 1563.14 L1291.44 1563.14 L1291.44 1568.04 L1285.43 1568.04 Q1278.65 1568.04 1276.07 1565.53 Q1273.49 1562.98 1273.49 1556.3 L1273.49 1536.95 L1269.19 1536.95 L1269.19 1532.4 L1273.49 1532.4 L1273.49 1522.27 L1279.38 1522.27 Z" fill="#000000" fill-rule="nonzero" fill-opacity="1"></path><path clip-path="url(#clip440)" d="M1299.15 1532.4 L1305 1532.4 L1305 1568.04 L1299.15 1568.04 L1299.15 1532.4 M1299.15 1518.52 L1305 1518.52 L1305 1525.93 L1299.15 1525.93 L1299.15 1518.52 Z" fill="#000000" fill-rule="nonzero" fill-opacity="1"></path><path clip-path="url(#clip440)" d="M1345.01 1539.24 Q1347.21 1535.29 1350.26 1533.41 Q1353.32 1531.54 1357.46 1531.54 Q1363.03 1531.54 1366.05 1535.45 Q1369.07 1539.33 1369.07 1546.53 L1369.07 1568.04 L1363.18 1568.04 L1363.18 1546.72 Q1363.18 1541.59 1361.37 1539.11 Q1359.56 1536.63 1355.83 1536.63 Q1351.28 1536.63 1348.64 1539.65 Q1346 1542.68 1346 1547.9 L1346 1568.04 L1340.11 1568.04 L1340.11 1546.72 Q1340.11 1541.56 1338.29 1539.11 Q1336.48 1536.63 1332.69 1536.63 Q1328.2 1536.63 1325.56 1539.68 Q1322.92 1542.71 1322.92 1547.9 L1322.92 1568.04 L1317.03 1568.04 L1317.03 1532.4 L1322.92 1532.4 L1322.92 1537.93 Q1324.93 1534.66 1327.73 1533.1 Q1330.53 1531.54 1334.38 1531.54 Q1338.26 1531.54 1340.97 1533.51 Q1343.71 1535.48 1345.01 1539.24 Z" fill="#000000" fill-rule="nonzero" fill-opacity="1"></path><path clip-path="url(#clip440)" d="M1411.25 1548.76 L1411.25 1551.62 L1384.32 1551.62 Q1384.7 1557.67 1387.95 1560.85 Q1391.23 1564 1397.05 1564 Q1400.42 1564 1403.57 1563.17 Q1406.76 1562.35 1409.88 1560.69 L1409.88 1566.23 Q1406.73 1567.57 1403.42 1568.27 Q1400.11 1568.97 1396.7 1568.97 Q1388.17 1568.97 1383.17 1564 Q1378.21 1559.04 1378.21 1550.57 Q1378.21 1541.82 1382.92 1536.69 Q1387.66 1531.54 1395.68 1531.54 Q1402.87 1531.54 1407.04 1536.18 Q1411.25 1540.8 1411.25 1548.76 M1405.39 1547.04 Q1405.33 1542.23 1402.68 1539.37 Q1400.07 1536.5 1395.74 1536.5 Q1390.84 1536.5 1387.88 1539.27 Q1384.95 1542.04 1384.51 1547.07 L1405.39 1547.04 Z" fill="#000000" fill-rule="nonzero" fill-opacity="1"></path><path clip-path="url(#clip440)" d="M1441.51 1537.87 Q1440.53 1537.3 1439.35 1537.04 Q1438.2 1536.76 1436.8 1536.76 Q1431.84 1536.76 1429.16 1540 Q1426.52 1543.22 1426.52 1549.27 L1426.52 1568.04 L1420.63 1568.04 L1420.63 1532.4 L1426.52 1532.4 L1426.52 1537.93 Q1428.37 1534.69 1431.33 1533.13 Q1434.29 1531.54 1438.52 1531.54 Q1439.13 1531.54 1439.86 1531.63 Q1440.59 1531.7 1441.48 1531.85 L1441.51 1537.87 Z" fill="#000000" fill-rule="nonzero" fill-opacity="1"></path><path clip-path="url(#clip440)" d="M1461.34 1518.52 L1461.34 1576.64 L1447.85 1576.64 L1447.85 1572.09 L1455.46 1572.09 L1455.46 1523.07 L1447.85 1523.07 L1447.85 1518.52 L1461.34 1518.52 Z" fill="#000000" fill-rule="nonzero" fill-opacity="1"></path><polyline clip-path="url(#clip442)" style="stroke:#000000; stroke-linecap:round; stroke-linejoin:round; stroke-width:2; stroke-opacity:0.1; fill:none" points="232.389,1404.96 2352.76,1404.96 "></polyline>
<polyline clip-path="url(#clip442)" style="stroke:#000000; stroke-linecap:round; stroke-linejoin:round; stroke-width:2; stroke-opacity:0.1; fill:none" points="232.389,1075.27 2352.76,1075.27 "></polyline>
<polyline clip-path="url(#clip442)" style="stroke:#000000; stroke-linecap:round; stroke-linejoin:round; stroke-width:2; stroke-opacity:0.1; fill:none" points="232.389,745.573 2352.76,745.573 "></polyline>
<polyline clip-path="url(#clip442)" style="stroke:#000000; stroke-linecap:round; stroke-linejoin:round; stroke-width:2; stroke-opacity:0.1; fill:none" points="232.389,415.879 2352.76,415.879 "></polyline>
<polyline clip-path="url(#clip442)" style="stroke:#000000; stroke-linecap:round; stroke-linejoin:round; stroke-width:2; stroke-opacity:0.1; fill:none" points="232.389,86.1857 2352.76,86.1857 "></polyline>
<polyline clip-path="url(#clip440)" style="stroke:#000000; stroke-linecap:round; stroke-linejoin:round; stroke-width:4; stroke-opacity:1; fill:none" points="232.389,1423.18 232.389,47.2441 "></polyline>
<polyline clip-path="url(#clip440)" style="stroke:#000000; stroke-linecap:round; stroke-linejoin:round; stroke-width:4; stroke-opacity:1; fill:none" points="232.389,1404.96 251.287,1404.96 "></polyline>
<polyline clip-path="url(#clip440)" style="stroke:#000000; stroke-linecap:round; stroke-linejoin:round; stroke-width:4; stroke-opacity:1; fill:none" points="232.389,1075.27 251.287,1075.27 "></polyline>
<polyline clip-path="url(#clip440)" style="stroke:#000000; stroke-linecap:round; stroke-linejoin:round; stroke-width:4; stroke-opacity:1; fill:none" points="232.389,745.573 251.287,745.573 "></polyline>
<polyline clip-path="url(#clip440)" style="stroke:#000000; stroke-linecap:round; stroke-linejoin:round; stroke-width:4; stroke-opacity:1; fill:none" points="232.389,415.879 251.287,415.879 "></polyline>
<polyline clip-path="url(#clip440)" style="stroke:#000000; stroke-linecap:round; stroke-linejoin:round; stroke-width:4; stroke-opacity:1; fill:none" points="232.389,86.1857 251.287,86.1857 "></polyline>
<path clip-path="url(#clip440)" d="M184.445 1390.76 Q180.834 1390.76 179.005 1394.32 Q177.2 1397.87 177.2 1405 Q177.2 1412.1 179.005 1415.67 Q180.834 1419.21 184.445 1419.21 Q188.079 1419.21 189.885 1415.67 Q191.713 1412.1 191.713 1405 Q191.713 1397.87 189.885 1394.32 Q188.079 1390.76 184.445 1390.76 M184.445 1387.06 Q190.255 1387.06 193.311 1391.66 Q196.389 1396.25 196.389 1405 Q196.389 1413.72 193.311 1418.33 Q190.255 1422.91 184.445 1422.91 Q178.635 1422.91 175.556 1418.33 Q172.501 1413.72 172.501 1405 Q172.501 1396.25 175.556 1391.66 Q178.635 1387.06 184.445 1387.06 Z" fill="#000000" fill-rule="nonzero" fill-opacity="1"></path><path clip-path="url(#clip440)" d="M149.306 1088.61 L165.626 1088.61 L165.626 1092.55 L143.681 1092.55 L143.681 1088.61 Q146.343 1085.86 150.927 1081.23 Q155.533 1076.57 156.714 1075.23 Q158.959 1072.71 159.839 1070.97 Q160.741 1069.21 160.741 1067.52 Q160.741 1064.77 158.797 1063.03 Q156.876 1061.3 153.774 1061.3 Q151.575 1061.3 149.121 1062.06 Q146.691 1062.82 143.913 1064.38 L143.913 1059.65 Q146.737 1058.52 149.191 1057.94 Q151.644 1057.36 153.681 1057.36 Q159.052 1057.36 162.246 1060.05 Q165.44 1062.73 165.44 1067.22 Q165.44 1069.35 164.63 1071.27 Q163.843 1073.17 161.737 1075.76 Q161.158 1076.44 158.056 1079.65 Q154.954 1082.85 149.306 1088.61 Z" fill="#000000" fill-rule="nonzero" fill-opacity="1"></path><path clip-path="url(#clip440)" d="M175.487 1057.99 L193.843 1057.99 L193.843 1061.92 L179.769 1061.92 L179.769 1070.39 Q180.788 1070.05 181.806 1069.88 Q182.825 1069.7 183.843 1069.7 Q189.63 1069.7 193.01 1072.87 Q196.389 1076.04 196.389 1081.46 Q196.389 1087.04 192.917 1090.14 Q189.445 1093.22 183.126 1093.22 Q180.95 1093.22 178.681 1092.85 Q176.436 1092.48 174.028 1091.74 L174.028 1087.04 Q176.112 1088.17 178.334 1088.73 Q180.556 1089.28 183.033 1089.28 Q187.038 1089.28 189.375 1087.18 Q191.713 1085.07 191.713 1081.46 Q191.713 1077.85 189.375 1075.74 Q187.038 1073.63 183.033 1073.63 Q181.158 1073.63 179.283 1074.05 Q177.431 1074.47 175.487 1075.35 L175.487 1057.99 Z" fill="#000000" fill-rule="nonzero" fill-opacity="1"></path><path clip-path="url(#clip440)" d="M144.329 728.293 L162.686 728.293 L162.686 732.228 L148.612 732.228 L148.612 740.7 Q149.63 740.353 150.649 740.191 Q151.667 740.006 152.686 740.006 Q158.473 740.006 161.852 743.177 Q165.232 746.349 165.232 751.765 Q165.232 757.344 161.76 760.446 Q158.288 763.524 151.968 763.524 Q149.792 763.524 147.524 763.154 Q145.279 762.784 142.871 762.043 L142.871 757.344 Q144.954 758.478 147.177 759.034 Q149.399 759.589 151.876 759.589 Q155.88 759.589 158.218 757.483 Q160.556 755.376 160.556 751.765 Q160.556 748.154 158.218 746.048 Q155.88 743.941 151.876 743.941 Q150.001 743.941 148.126 744.358 Q146.274 744.775 144.329 745.654 L144.329 728.293 Z" fill="#000000" fill-rule="nonzero" fill-opacity="1"></path><path clip-path="url(#clip440)" d="M184.445 731.372 Q180.834 731.372 179.005 734.937 Q177.2 738.478 177.2 745.608 Q177.2 752.714 179.005 756.279 Q180.834 759.821 184.445 759.821 Q188.079 759.821 189.885 756.279 Q191.713 752.714 191.713 745.608 Q191.713 738.478 189.885 734.937 Q188.079 731.372 184.445 731.372 M184.445 727.668 Q190.255 727.668 193.311 732.275 Q196.389 736.858 196.389 745.608 Q196.389 754.335 193.311 758.941 Q190.255 763.524 184.445 763.524 Q178.635 763.524 175.556 758.941 Q172.501 754.335 172.501 745.608 Q172.501 736.858 175.556 732.275 Q178.635 727.668 184.445 727.668 Z" fill="#000000" fill-rule="nonzero" fill-opacity="1"></path><path clip-path="url(#clip440)" d="M144.098 398.599 L166.32 398.599 L166.32 400.59 L153.774 433.159 L148.89 433.159 L160.695 402.535 L144.098 402.535 L144.098 398.599 Z" fill="#000000" fill-rule="nonzero" fill-opacity="1"></path><path clip-path="url(#clip440)" d="M175.487 398.599 L193.843 398.599 L193.843 402.535 L179.769 402.535 L179.769 411.007 Q180.788 410.66 181.806 410.497 Q182.825 410.312 183.843 410.312 Q189.63 410.312 193.01 413.484 Q196.389 416.655 196.389 422.071 Q196.389 427.65 192.917 430.752 Q189.445 433.831 183.126 433.831 Q180.95 433.831 178.681 433.46 Q176.436 433.09 174.028 432.349 L174.028 427.65 Q176.112 428.784 178.334 429.34 Q180.556 429.896 183.033 429.896 Q187.038 429.896 189.375 427.789 Q191.713 425.683 191.713 422.071 Q191.713 418.46 189.375 416.354 Q187.038 414.247 183.033 414.247 Q181.158 414.247 179.283 414.664 Q177.431 415.081 175.487 415.96 L175.487 398.599 Z" fill="#000000" fill-rule="nonzero" fill-opacity="1"></path><path clip-path="url(#clip440)" d="M114.931 99.5305 L122.57 99.5305 L122.57 73.1649 L114.26 74.8316 L114.26 70.5723 L122.524 68.9057 L127.2 68.9057 L127.2 99.5305 L134.839 99.5305 L134.839 103.466 L114.931 103.466 L114.931 99.5305 Z" fill="#000000" fill-rule="nonzero" fill-opacity="1"></path><path clip-path="url(#clip440)" d="M154.283 71.9844 Q150.672 71.9844 148.843 75.5492 Q147.038 79.0908 147.038 86.2204 Q147.038 93.3268 148.843 96.8916 Q150.672 100.433 154.283 100.433 Q157.917 100.433 159.723 96.8916 Q161.552 93.3268 161.552 86.2204 Q161.552 79.0908 159.723 75.5492 Q157.917 71.9844 154.283 71.9844 M154.283 68.2807 Q160.093 68.2807 163.149 72.8871 Q166.227 77.4704 166.227 86.2204 Q166.227 94.9472 163.149 99.5537 Q160.093 104.137 154.283 104.137 Q148.473 104.137 145.394 99.5537 Q142.339 94.9472 142.339 86.2204 Q142.339 77.4704 145.394 72.8871 Q148.473 68.2807 154.283 68.2807 Z" fill="#000000" fill-rule="nonzero" fill-opacity="1"></path><path clip-path="url(#clip440)" d="M184.445 71.9844 Q180.834 71.9844 179.005 75.5492 Q177.2 79.0908 177.2 86.2204 Q177.2 93.3268 179.005 96.8916 Q180.834 100.433 184.445 100.433 Q188.079 100.433 189.885 96.8916 Q191.713 93.3268 191.713 86.2204 Q191.713 79.0908 189.885 75.5492 Q188.079 71.9844 184.445 71.9844 M184.445 68.2807 Q190.255 68.2807 193.311 72.8871 Q196.389 77.4704 196.389 86.2204 Q196.389 94.9472 193.311 99.5537 Q190.255 104.137 184.445 104.137 Q178.635 104.137 175.556 99.5537 Q172.501 94.9472 172.501 86.2204 Q172.501 77.4704 175.556 72.8871 Q178.635 68.2807 184.445 68.2807 Z" fill="#000000" fill-rule="nonzero" fill-opacity="1"></path><path clip-path="url(#clip440)" d="M16.4842 926.74 L16.4842 920.311 L36.568 920.311 L16.4842 898.986 L16.4842 890.71 L38.6368 914.295 L64.0042 889.023 L64.0042 897.49 L41.1194 920.311 L64.0042 920.311 L64.0042 926.74 L16.4842 926.74 Z" fill="#000000" fill-rule="nonzero" fill-opacity="1"></path><path clip-path="url(#clip440)" d="M32.4621 873.682 Q32.4621 878.393 36.1542 881.13 Q39.8145 883.867 46.212 883.867 Q52.6095 883.867 56.3017 881.162 Q59.9619 878.424 59.9619 873.682 Q59.9619 869.003 56.2698 866.266 Q52.5777 863.529 46.212 863.529 Q39.8781 863.529 36.186 866.266 Q32.4621 869.003 32.4621 873.682 M27.4968 873.682 Q27.4968 866.043 32.4621 861.683 Q37.4273 857.322 46.212 857.322 Q54.9649 857.322 59.9619 861.683 Q64.9272 866.043 64.9272 873.682 Q64.9272 881.353 59.9619 885.713 Q54.9649 890.042 46.212 890.042 Q37.4273 890.042 32.4621 885.713 Q27.4968 881.353 27.4968 873.682 Z" fill="#000000" fill-rule="nonzero" fill-opacity="1"></path><path clip-path="url(#clip440)" d="M29.4065 824.889 L34.9447 824.889 Q33.6716 827.371 33.035 830.045 Q32.3984 832.719 32.3984 835.583 Q32.3984 839.944 33.7352 842.14 Q35.072 844.304 37.7456 844.304 Q39.7826 844.304 40.9603 842.745 Q42.1061 841.185 43.1565 836.474 L43.6021 834.469 Q44.9389 828.231 47.3897 825.621 Q49.8086 822.979 54.1691 822.979 Q59.1344 822.979 62.0308 826.926 Q64.9272 830.841 64.9272 837.716 Q64.9272 840.58 64.3543 843.7 Q63.8132 846.787 62.6992 850.224 L56.6518 850.224 Q58.3387 846.978 59.198 843.827 Q60.0256 840.676 60.0256 837.588 Q60.0256 833.451 58.6251 831.223 Q57.1929 828.995 54.6147 828.995 Q52.2276 828.995 50.9545 830.618 Q49.6813 832.209 48.5037 837.652 L48.0262 839.689 Q46.8804 845.132 44.5251 847.551 Q42.138 849.97 38.0002 849.97 Q32.9713 849.97 30.2341 846.405 Q27.4968 842.84 27.4968 836.283 Q27.4968 833.037 27.9743 830.172 Q28.4517 827.308 29.4065 824.889 Z" fill="#000000" fill-rule="nonzero" fill-opacity="1"></path><path clip-path="url(#clip440)" d="M18.2347 807.861 L28.3562 807.861 L28.3562 795.798 L32.9077 795.798 L32.9077 807.861 L52.2594 807.861 Q56.6199 807.861 57.8613 806.683 Q59.1026 805.473 59.1026 801.813 L59.1026 795.798 L64.0042 795.798 L64.0042 801.813 Q64.0042 808.593 61.4897 811.171 Q58.9434 813.749 52.2594 813.749 L32.9077 813.749 L32.9077 818.046 L28.3562 818.046 L28.3562 813.749 L18.2347 813.749 L18.2347 807.861 Z" fill="#000000" fill-rule="nonzero" fill-opacity="1"></path><path clip-path="url(#clip440)" d="M42.4881 758.463 L64.0042 758.463 L64.0042 764.319 L42.679 764.319 Q37.6183 764.319 35.1038 766.293 Q32.5894 768.266 32.5894 772.213 Q32.5894 776.955 35.6131 779.692 Q38.6368 782.43 43.8567 782.43 L64.0042 782.43 L64.0042 788.318 L28.3562 788.318 L28.3562 782.43 L33.8944 782.43 Q30.6797 780.329 29.0883 777.496 Q27.4968 774.632 27.4968 770.908 Q27.4968 764.765 31.3163 761.614 Q35.1038 758.463 42.4881 758.463 Z" fill="#000000" fill-rule="nonzero" fill-opacity="1"></path><path clip-path="url(#clip440)" d="M46.0847 730.581 Q46.0847 737.679 47.7079 740.416 Q49.3312 743.153 53.2461 743.153 Q56.3653 743.153 58.2114 741.116 Q60.0256 739.047 60.0256 735.514 Q60.0256 730.645 56.5881 727.716 Q53.1188 724.756 47.3897 724.756 L46.0847 724.756 L46.0847 730.581 M43.6657 718.9 L64.0042 718.9 L64.0042 724.756 L58.5933 724.756 Q61.8398 726.761 63.3994 729.753 Q64.9272 732.745 64.9272 737.074 Q64.9272 742.548 61.8716 745.795 Q58.7843 749.01 53.6281 749.01 Q47.6125 749.01 44.5569 744.999 Q41.5014 740.957 41.5014 732.968 L41.5014 724.756 L40.9285 724.756 Q36.8862 724.756 34.6901 727.43 Q32.4621 730.072 32.4621 734.878 Q32.4621 737.933 33.1941 740.83 Q33.9262 743.726 35.3903 746.4 L29.9795 746.4 Q28.7381 743.185 28.1334 740.161 Q27.4968 737.138 27.4968 734.273 Q27.4968 726.539 31.5072 722.719 Q35.5176 718.9 43.6657 718.9 Z" fill="#000000" fill-rule="nonzero" fill-opacity="1"></path><path clip-path="url(#clip440)" d="M33.7671 683.379 L14.479 683.379 L14.479 677.523 L64.0042 677.523 L64.0042 683.379 L58.657 683.379 Q61.8398 685.225 63.3994 688.058 Q64.9272 690.859 64.9272 694.806 Q64.9272 701.267 59.771 705.341 Q54.6147 709.383 46.212 709.383 Q37.8093 709.383 32.6531 705.341 Q27.4968 701.267 27.4968 694.806 Q27.4968 690.859 29.0564 688.058 Q30.5842 685.225 33.7671 683.379 M46.212 703.336 Q52.6732 703.336 56.3653 700.694 Q60.0256 698.02 60.0256 693.373 Q60.0256 688.726 56.3653 686.053 Q52.6732 683.379 46.212 683.379 Q39.7508 683.379 36.0905 686.053 Q32.3984 688.726 32.3984 693.373 Q32.3984 698.02 36.0905 700.694 Q39.7508 703.336 46.212 703.336 Z" fill="#000000" fill-rule="nonzero" fill-opacity="1"></path><path clip-path="url(#clip440)" d="M14.479 645.28 L14.479 631.785 L19.0304 631.785 L19.0304 639.424 L68.0464 639.424 L68.0464 631.785 L72.5979 631.785 L72.5979 645.28 L14.479 645.28 Z" fill="#000000" fill-rule="nonzero" fill-opacity="1"></path><path clip-path="url(#clip440)" d="M43.0928 578.059 Q43.0928 580.828 45.4481 582.419 Q47.8034 583.979 52.0048 583.979 Q56.1425 583.979 58.5296 582.419 Q60.885 580.828 60.885 578.059 Q60.885 575.353 58.5296 573.794 Q56.1425 572.202 52.0048 572.202 Q47.8353 572.202 45.48 573.794 Q43.0928 575.353 43.0928 578.059 M39.0506 578.059 Q39.0506 573.03 42.5517 570.07 Q46.0529 567.11 52.0048 567.11 Q57.9567 567.11 61.4579 570.101 Q64.9272 573.062 64.9272 578.059 Q64.9272 583.151 61.4579 586.111 Q57.9567 589.071 52.0048 589.071 Q46.021 589.071 42.5517 586.111 Q39.0506 583.119 39.0506 578.059 M19.667 610.906 Q19.667 613.643 22.0542 615.234 Q24.4095 616.794 28.5472 616.794 Q32.7485 616.794 35.1038 615.234 Q37.4592 613.675 37.4592 610.906 Q37.4592 608.137 35.1038 606.577 Q32.7485 604.986 28.5472 604.986 Q24.4413 604.986 22.0542 606.577 Q19.667 608.168 19.667 610.906 M15.6248 582.164 L15.6248 577.072 L64.9272 606.8 L64.9272 611.892 L15.6248 582.164 M15.6248 610.906 Q15.6248 605.877 19.1259 602.885 Q22.5952 599.893 28.5472 599.893 Q34.5628 599.893 38.0321 602.885 Q41.5014 605.845 41.5014 610.906 Q41.5014 615.966 38.0321 618.926 Q34.5309 621.855 28.5472 621.855 Q22.6271 621.855 19.1259 618.895 Q15.6248 615.935 15.6248 610.906 Z" fill="#000000" fill-rule="nonzero" fill-opacity="1"></path><path clip-path="url(#clip440)" d="M14.479 543.684 L72.5979 543.684 L72.5979 557.179 L68.0464 557.179 L68.0464 549.572 L19.0304 549.572 L19.0304 557.179 L14.479 557.179 L14.479 543.684 Z" fill="#000000" fill-rule="nonzero" fill-opacity="1"></path><polyline clip-path="url(#clip442)" style="stroke:#0173b2; stroke-linecap:round; stroke-linejoin:round; stroke-width:4; stroke-opacity:1; fill:none" points="292.4,1384.24 292.4,1384.24 326.304,1384.24 326.304,1383.9 360.208,1383.9 360.208,1383.73 394.112,1383.73 428.016,1383.73 428.016,1383.68 461.921,1383.68 461.921,1383.47 495.825,1383.47 495.825,1383.53 529.729,1383.53 529.729,1382.97 563.633,1382.97 563.633,1366.03 597.537,1366.03 597.537,1360.53 631.441,1360.53 631.441,1360.36 665.346,1360.36 665.346,1358.91 699.25,1358.91 699.25,1349.86 733.154,1349.86 733.154,1343.03 767.058,1343.03 767.058,1337.99 800.962,1337.99 800.962,1333.14 834.866,1333.14 834.866,1322.28 868.771,1322.28 868.771,1291.39 902.675,1291.39 902.675,1290.21 936.579,1290.21 936.579,1041.96 970.483,1041.96 970.483,1024.82 1004.39,1024.82 1004.39,1022.68 1038.29,1022.68 1038.29,1019.28 1072.2,1019.28 1072.2,1019.92 1106.1,1019.92 1106.1,1019.15 1140,1019.15 1140,1019.32 1173.91,1019.32 1173.91,1019.45 1207.81,1019.45 1207.81,1021.54 1241.72,1021.54 1241.72,1038.2 1275.62,1038.2 1275.62,1038.88 1309.52,1038.88 1309.52,1048 1343.43,1048 1343.43,1305.83 1377.33,1305.83 1377.33,1312.79 1411.24,1312.79 1411.24,1318.42 1445.14,1318.42 1445.14,1327.72 1479.05,1327.72 1479.05,1335.38 1512.95,1335.38 1512.95,1344.75 1546.85,1344.75 1546.85,1350.78 1580.76,1350.78 1580.76,1355.25 1614.66,1355.25 1614.66,1356.61 1648.57,1356.61 1648.57,1358.52 1682.47,1358.52 1682.47,1358.55 1716.37,1358.55 1716.37,1360.43 1750.28,1360.43 1750.28,1360.76 1784.18,1360.76 1784.18,1362.28 1818.09,1362.28 1818.09,1362.65 1851.99,1362.65 1851.99,1365.06 1885.9,1365.06 1885.9,1368.04 1919.8,1368.04 1919.8,1371.6 1953.7,1371.6 1953.7,1373.07 1987.61,1373.07 1987.61,1373.81 2021.51,1373.81 2021.51,1375.07 2055.42,1375.07 2055.42,1375.55 2089.32,1375.55 2089.32,1376.12 2123.22,1376.12 2123.22,1377.69 2157.13,1377.69 2157.13,1378.49 2191.03,1378.49 2191.03,1378.39 2224.94,1378.39 2224.94,1379.02 2258.84,1379.02 2258.84,1379.65 2292.75,1379.65 "></polyline>
<polyline clip-path="url(#clip442)" style="stroke:#029e73; stroke-linecap:round; stroke-linejoin:round; stroke-width:4; stroke-opacity:1; fill:none" points="292.4,1320.32 292.4,1320.32 326.304,1320.32 360.208,1320.32 360.208,1320.15 394.112,1320.15 428.016,1320.15 428.016,1319.89 461.921,1319.89 495.825,1319.89 495.825,1319.94 529.729,1319.94 529.729,1319.38 563.633,1319.38 563.633,1318.97 597.537,1318.97 597.537,1319.53 631.441,1319.53 631.441,1318.42 665.346,1318.42 665.346,1318.39 699.25,1318.39 699.25,1314.22 733.154,1314.22 733.154,1310.6 767.058,1310.6 767.058,1308.06 800.962,1308.06 800.962,1305.3 834.866,1305.3 834.866,1296.43 868.771,1296.43 868.771,1284.02 902.675,1284.02 902.675,1283.14 936.579,1283.14 936.579,690.954 970.483,690.954 970.483,678.632 1004.39,678.632 1004.39,676.052 1038.29,676.052 1038.29,671.112 1072.2,671.112 1072.2,672.16 1106.1,672.16 1106.1,671.18 1140,671.18 1140,671.543 1173.91,671.543 1173.91,671.722 1207.81,671.722 1207.81,674.661 1241.72,674.661 1241.72,687.369 1275.62,687.369 1275.62,688.557 1309.52,688.557 1309.52,694.496 1343.43,694.496 1343.43,1281.29 1377.33,1281.29 1377.33,1287.06 1411.24,1287.06 1411.24,1291.09 1445.14,1291.09 1445.14,1297.91 1479.05,1297.91 1479.05,1303.47 1512.95,1303.47 1512.95,1309.83 1546.85,1309.83 1546.85,1313.64 1580.76,1313.64 1580.76,1316.22 1614.66,1316.22 1614.66,1316.83 1648.57,1316.83 1648.57,1317.79 1682.47,1317.79 1682.47,1317.27 1716.37,1317.27 1716.37,1318.42 1750.28,1318.42 1784.18,1318.42 1784.18,1319.43 1818.09,1319.43 1851.99,1319.43 1851.99,1319.69 1885.9,1319.69 1885.9,1319.94 1919.8,1319.94 1953.7,1319.94 1987.61,1319.94 1987.61,1319.64 2021.51,1319.64 2055.42,1319.64 2055.42,1319.07 2089.32,1319.07 2089.32,1318.81 2123.22,1318.81 2123.22,1319.33 2157.13,1319.33 2157.13,1319.5 2191.03,1319.5 2191.03,1319.2 2224.94,1319.2 2258.84,1319.2 2292.75,1319.2 "></polyline>
<polyline clip-path="url(#clip442)" style="stroke:#d55e00; stroke-linecap:round; stroke-linejoin:round; stroke-width:4; stroke-opacity:1; fill:none" points="292.4,1011.38 292.4,1011.38 326.304,1011.38 326.304,1011.03 360.208,1011.03 360.208,1010.86 394.112,1010.86 394.112,1010.58 428.016,1010.58 428.016,1010.54 461.921,1010.54 461.921,1010.15 495.825,1010.15 495.825,1010.2 529.729,1010.2 529.729,1009.97 563.633,1009.97 563.633,1000.95 597.537,1000.95 597.537,988.401 631.441,988.401 631.441,969.305 665.346,969.305 665.346,949.619 699.25,949.619 699.25,916.956 733.154,916.956 733.154,882.877 767.058,882.877 767.058,851.057 800.962,851.057 800.962,813.094 834.866,813.094 834.866,760.522 868.771,760.522 868.771,716.093 902.675,716.093 902.675,688.073 936.579,688.073 936.579,155.866 970.483,155.866 970.483,122.415 1004.39,122.415 1004.39,105.859 1038.29,105.859 1038.29,87.2181 1072.2,87.2181 1072.2,87.888 1106.1,87.888 1106.1,86.1857 1140,86.1857 1140,87.4931 1173.91,87.4931 1173.91,91.389 1207.81,91.389 1207.81,100.603 1241.72,100.603 1241.72,132.01 1275.62,132.01 1275.62,141.353 1309.52,141.353 1309.52,161.304 1343.43,161.304 1343.43,679.591 1377.33,679.591 1377.33,716.978 1411.24,716.978 1411.24,752.105 1445.14,752.105 1445.14,791.834 1479.05,791.834 1479.05,828.315 1512.95,828.315 1512.95,866.7 1546.85,866.7 1546.85,895.643 1580.76,895.643 1580.76,921.216 1614.66,921.216 1614.66,934.387 1648.57,934.387 1648.57,947.582 1682.47,947.582 1682.47,956.837 1716.37,956.837 1716.37,967.768 1750.28,967.768 1750.28,974.026 1784.18,974.026 1784.18,980.693 1818.09,980.693 1818.09,986.396 1851.99,986.396 1851.99,991.209 1885.9,991.209 1885.9,994.151 1919.8,994.151 1919.8,997.88 1953.7,997.88 1953.7,999.08 1987.61,999.08 1987.61,999.695 2021.51,999.695 2021.51,1001.32 2055.42,1001.32 2055.42,1001.85 2089.32,1001.85 2089.32,1002.47 2123.22,1002.47 2123.22,1003.92 2157.13,1003.92 2157.13,1004.95 2191.03,1004.95 2191.03,1004.86 2224.94,1004.86 2224.94,1005.52 2258.84,1005.52 2258.84,1006.18 2292.75,1006.18 "></polyline>
<path clip-path="url(#clip440)" d="M1721.18 300.469 L2282.08 300.469 L2282.08 93.1086 L1721.18 93.1086  Z" fill="#ffffff" fill-rule="evenodd" fill-opacity="1"></path>
<polyline clip-path="url(#clip440)" style="stroke:#000000; stroke-linecap:round; stroke-linejoin:round; stroke-width:4; stroke-opacity:1; fill:none" points="1721.18,300.469 2282.08,300.469 2282.08,93.1086 1721.18,93.1086 1721.18,300.469 "></polyline>
<polyline clip-path="url(#clip440)" style="stroke:#0173b2; stroke-linecap:round; stroke-linejoin:round; stroke-width:4; stroke-opacity:1; fill:none" points="1744.74,144.949 1886.09,144.949 "></polyline>
<path clip-path="url(#clip440)" d="M1931.9 128.803 L1931.9 133.363 Q1929.24 132.09 1926.88 131.465 Q1924.51 130.84 1922.32 130.84 Q1918.5 130.84 1916.41 132.321 Q1914.35 133.803 1914.35 136.534 Q1914.35 138.826 1915.72 140.007 Q1917.11 141.164 1920.95 141.882 L1923.77 142.46 Q1929.01 143.456 1931.48 145.979 Q1933.98 148.479 1933.98 152.692 Q1933.98 157.715 1930.6 160.307 Q1927.25 162.9 1920.74 162.9 Q1918.29 162.9 1915.51 162.344 Q1912.76 161.789 1909.79 160.701 L1909.79 155.886 Q1912.64 157.483 1915.37 158.293 Q1918.1 159.104 1920.74 159.104 Q1924.75 159.104 1926.92 157.53 Q1929.1 155.956 1929.1 153.039 Q1929.1 150.493 1927.52 149.057 Q1925.97 147.622 1922.41 146.905 L1919.56 146.349 Q1914.33 145.307 1911.99 143.085 Q1909.65 140.863 1909.65 136.905 Q1909.65 132.321 1912.87 129.682 Q1916.11 127.044 1921.78 127.044 Q1924.21 127.044 1926.74 127.483 Q1929.26 127.923 1931.9 128.803 Z" fill="#000000" fill-rule="nonzero" fill-opacity="1"></path><path clip-path="url(#clip440)" d="M1952.87 149.196 Q1947.71 149.196 1945.72 150.377 Q1943.73 151.557 1943.73 154.405 Q1943.73 156.673 1945.21 158.016 Q1946.71 159.335 1949.28 159.335 Q1952.82 159.335 1954.95 156.835 Q1957.11 154.312 1957.11 150.145 L1957.11 149.196 L1952.87 149.196 M1961.37 147.437 L1961.37 162.229 L1957.11 162.229 L1957.11 158.293 Q1955.65 160.655 1953.47 161.789 Q1951.3 162.9 1948.15 162.9 Q1944.17 162.9 1941.81 160.678 Q1939.47 158.432 1939.47 154.682 Q1939.47 150.307 1942.38 148.085 Q1945.32 145.863 1951.13 145.863 L1957.11 145.863 L1957.11 145.446 Q1957.11 142.507 1955.16 140.909 Q1953.24 139.289 1949.75 139.289 Q1947.52 139.289 1945.42 139.821 Q1943.31 140.354 1941.37 141.419 L1941.37 137.483 Q1943.7 136.581 1945.9 136.141 Q1948.1 135.678 1950.19 135.678 Q1955.81 135.678 1958.59 138.594 Q1961.37 141.511 1961.37 147.437 Z" fill="#000000" fill-rule="nonzero" fill-opacity="1"></path><path clip-path="url(#clip440)" d="M1991.69 146.581 L1991.69 162.229 L1987.43 162.229 L1987.43 146.719 Q1987.43 143.039 1986 141.21 Q1984.56 139.382 1981.69 139.382 Q1978.24 139.382 1976.25 141.581 Q1974.26 143.78 1974.26 147.576 L1974.26 162.229 L1969.98 162.229 L1969.98 136.303 L1974.26 136.303 L1974.26 140.331 Q1975.79 137.993 1977.85 136.835 Q1979.93 135.678 1982.64 135.678 Q1987.11 135.678 1989.4 138.456 Q1991.69 141.21 1991.69 146.581 Z" fill="#000000" fill-rule="nonzero" fill-opacity="1"></path><path clip-path="url(#clip440)" d="M2021.74 146.581 L2021.74 162.229 L2017.48 162.229 L2017.48 146.719 Q2017.48 143.039 2016.04 141.21 Q2014.61 139.382 2011.74 139.382 Q2008.29 139.382 2006.3 141.581 Q2004.31 143.78 2004.31 147.576 L2004.31 162.229 L2000.02 162.229 L2000.02 136.303 L2004.31 136.303 L2004.31 140.331 Q2005.83 137.993 2007.89 136.835 Q2009.98 135.678 2012.69 135.678 Q2017.15 135.678 2019.44 138.456 Q2021.74 141.21 2021.74 146.581 Z" fill="#000000" fill-rule="nonzero" fill-opacity="1"></path><path clip-path="url(#clip440)" d="M2046.76 137.067 L2046.76 141.094 Q2044.95 140.169 2043.01 139.706 Q2041.06 139.243 2038.98 139.243 Q2035.81 139.243 2034.21 140.215 Q2032.64 141.187 2032.64 143.131 Q2032.64 144.613 2033.77 145.469 Q2034.91 146.303 2038.33 147.067 L2039.79 147.391 Q2044.33 148.363 2046.23 150.145 Q2048.15 151.905 2048.15 155.076 Q2048.15 158.687 2045.28 160.793 Q2042.43 162.9 2037.43 162.9 Q2035.35 162.9 2033.08 162.483 Q2030.83 162.09 2028.33 161.28 L2028.33 156.881 Q2030.69 158.108 2032.99 158.733 Q2035.28 159.335 2037.52 159.335 Q2040.53 159.335 2042.15 158.317 Q2043.77 157.275 2043.77 155.4 Q2043.77 153.664 2042.59 152.738 Q2041.44 151.812 2037.48 150.956 L2036 150.608 Q2032.04 149.775 2030.28 148.062 Q2028.52 146.326 2028.52 143.317 Q2028.52 139.659 2031.11 137.669 Q2033.7 135.678 2038.47 135.678 Q2040.83 135.678 2042.92 136.025 Q2045 136.372 2046.76 137.067 Z" fill="#000000" fill-rule="nonzero" fill-opacity="1"></path><path clip-path="url(#clip440)" d="M2065.72 164.636 Q2063.91 169.266 2062.2 170.678 Q2060.49 172.09 2057.62 172.09 L2054.21 172.09 L2054.21 168.525 L2056.71 168.525 Q2058.47 168.525 2059.44 167.692 Q2060.42 166.858 2061.6 163.756 L2062.36 161.812 L2051.87 136.303 L2056.39 136.303 L2064.49 156.581 L2072.59 136.303 L2077.11 136.303 L2065.72 164.636 Z" fill="#000000" fill-rule="nonzero" fill-opacity="1"></path><path clip-path="url(#clip440)" d="M2104.54 146.581 L2104.54 162.229 L2100.28 162.229 L2100.28 146.719 Q2100.28 143.039 2098.84 141.21 Q2097.41 139.382 2094.54 139.382 Q2091.09 139.382 2089.1 141.581 Q2087.11 143.78 2087.11 147.576 L2087.11 162.229 L2082.82 162.229 L2082.82 136.303 L2087.11 136.303 L2087.11 140.331 Q2088.63 137.993 2090.69 136.835 Q2092.78 135.678 2095.49 135.678 Q2099.95 135.678 2102.25 138.456 Q2104.54 141.21 2104.54 146.581 Z" fill="#000000" fill-rule="nonzero" fill-opacity="1"></path><path clip-path="url(#clip440)" d="M2131.64 149.289 Q2131.64 144.59 2129.7 141.928 Q2127.78 139.243 2124.4 139.243 Q2121.02 139.243 2119.07 141.928 Q2117.15 144.59 2117.15 149.289 Q2117.15 153.988 2119.07 156.673 Q2121.02 159.335 2124.4 159.335 Q2127.78 159.335 2129.7 156.673 Q2131.64 153.988 2131.64 149.289 M2117.15 140.238 Q2118.49 137.923 2120.53 136.812 Q2122.59 135.678 2125.44 135.678 Q2130.16 135.678 2133.1 139.428 Q2136.06 143.178 2136.06 149.289 Q2136.06 155.4 2133.1 159.15 Q2130.16 162.9 2125.44 162.9 Q2122.59 162.9 2120.53 161.789 Q2118.49 160.655 2117.15 158.34 L2117.15 162.229 L2112.87 162.229 L2112.87 126.21 L2117.15 126.21 L2117.15 140.238 Z" fill="#000000" fill-rule="nonzero" fill-opacity="1"></path><path clip-path="url(#clip440)" d="M2154.91 149.196 Q2149.74 149.196 2147.75 150.377 Q2145.76 151.557 2145.76 154.405 Q2145.76 156.673 2147.24 158.016 Q2148.75 159.335 2151.32 159.335 Q2154.86 159.335 2156.99 156.835 Q2159.14 154.312 2159.14 150.145 L2159.14 149.196 L2154.91 149.196 M2163.4 147.437 L2163.4 162.229 L2159.14 162.229 L2159.14 158.293 Q2157.68 160.655 2155.51 161.789 Q2153.33 162.9 2150.18 162.9 Q2146.2 162.9 2143.84 160.678 Q2141.5 158.432 2141.5 154.682 Q2141.5 150.307 2144.42 148.085 Q2147.36 145.863 2153.17 145.863 L2159.14 145.863 L2159.14 145.446 Q2159.14 142.507 2157.2 140.909 Q2155.28 139.289 2151.78 139.289 Q2149.56 139.289 2147.45 139.821 Q2145.35 140.354 2143.4 141.419 L2143.4 137.483 Q2145.74 136.581 2147.94 136.141 Q2150.14 135.678 2152.22 135.678 Q2157.85 135.678 2160.62 138.594 Q2163.4 141.511 2163.4 147.437 Z" fill="#000000" fill-rule="nonzero" fill-opacity="1"></path><path clip-path="url(#clip440)" d="M2188.7 137.067 L2188.7 141.094 Q2186.9 140.169 2184.95 139.706 Q2183.01 139.243 2180.93 139.243 Q2177.75 139.243 2176.16 140.215 Q2174.58 141.187 2174.58 143.131 Q2174.58 144.613 2175.72 145.469 Q2176.85 146.303 2180.28 147.067 L2181.74 147.391 Q2186.27 148.363 2188.17 150.145 Q2190.09 151.905 2190.09 155.076 Q2190.09 158.687 2187.22 160.793 Q2184.37 162.9 2179.37 162.9 Q2177.29 162.9 2175.02 162.483 Q2172.78 162.09 2170.28 161.28 L2170.28 156.881 Q2172.64 158.108 2174.93 158.733 Q2177.22 159.335 2179.47 159.335 Q2182.48 159.335 2184.1 158.317 Q2185.72 157.275 2185.72 155.4 Q2185.72 153.664 2184.54 152.738 Q2183.38 151.812 2179.42 150.956 L2177.94 150.608 Q2173.98 149.775 2172.22 148.062 Q2170.46 146.326 2170.46 143.317 Q2170.46 139.659 2173.05 137.669 Q2175.65 135.678 2180.42 135.678 Q2182.78 135.678 2184.86 136.025 Q2186.94 136.372 2188.7 137.067 Z" fill="#000000" fill-rule="nonzero" fill-opacity="1"></path><path clip-path="url(#clip440)" d="M2219.05 148.201 L2219.05 150.284 L2199.47 150.284 Q2199.74 154.682 2202.11 156.997 Q2204.49 159.289 2208.73 159.289 Q2211.18 159.289 2213.47 158.687 Q2215.79 158.085 2218.05 156.881 L2218.05 160.909 Q2215.76 161.881 2213.36 162.391 Q2210.95 162.9 2208.47 162.9 Q2202.27 162.9 2198.63 159.289 Q2195.02 155.678 2195.02 149.52 Q2195.02 143.155 2198.45 139.428 Q2201.9 135.678 2207.73 135.678 Q2212.96 135.678 2215.99 139.057 Q2219.05 142.414 2219.05 148.201 M2214.79 146.951 Q2214.74 143.456 2212.82 141.372 Q2210.93 139.289 2207.78 139.289 Q2204.21 139.289 2202.06 141.303 Q2199.93 143.317 2199.61 146.974 L2214.79 146.951 Z" fill="#000000" fill-rule="nonzero" fill-opacity="1"></path><path clip-path="url(#clip440)" d="M2241.06 140.284 Q2240.35 139.868 2239.49 139.682 Q2238.66 139.474 2237.64 139.474 Q2234.03 139.474 2232.08 141.835 Q2230.16 144.173 2230.16 148.571 L2230.16 162.229 L2225.88 162.229 L2225.88 136.303 L2230.16 136.303 L2230.16 140.331 Q2231.5 137.969 2233.66 136.835 Q2235.81 135.678 2238.89 135.678 Q2239.33 135.678 2239.86 135.747 Q2240.39 135.794 2241.04 135.909 L2241.06 140.284 Z" fill="#000000" fill-rule="nonzero" fill-opacity="1"></path><path clip-path="url(#clip440)" d="M2249.74 128.942 L2249.74 136.303 L2258.52 136.303 L2258.52 139.613 L2249.74 139.613 L2249.74 153.687 Q2249.74 156.858 2250.6 157.761 Q2251.48 158.664 2254.14 158.664 L2258.52 158.664 L2258.52 162.229 L2254.14 162.229 Q2249.21 162.229 2247.34 160.4 Q2245.46 158.548 2245.46 153.687 L2245.46 139.613 L2242.34 139.613 L2242.34 136.303 L2245.46 136.303 L2245.46 128.942 L2249.74 128.942 Z" fill="#000000" fill-rule="nonzero" fill-opacity="1"></path><polyline clip-path="url(#clip440)" style="stroke:#029e73; stroke-linecap:round; stroke-linejoin:round; stroke-width:4; stroke-opacity:1; fill:none" points="1744.74,196.789 1886.09,196.789 "></polyline>
<path clip-path="url(#clip440)" d="M1909.65 179.509 L1915.95 179.509 L1931.27 208.421 L1931.27 179.509 L1935.81 179.509 L1935.81 214.069 L1929.51 214.069 L1914.19 185.157 L1914.19 214.069 L1909.65 214.069 L1909.65 179.509 Z" fill="#000000" fill-rule="nonzero" fill-opacity="1"></path><path clip-path="url(#clip440)" d="M1942.78 199.184 L1955.26 199.184 L1955.26 202.981 L1942.78 202.981 L1942.78 199.184 Z" fill="#000000" fill-rule="nonzero" fill-opacity="1"></path><path clip-path="url(#clip440)" d="M1963.45 210.133 L1971.09 210.133 L1971.09 183.768 L1962.78 185.435 L1962.78 181.175 L1971.04 179.509 L1975.72 179.509 L1975.72 210.133 L1983.36 210.133 L1983.36 214.069 L1963.45 214.069 L1963.45 210.133 Z" fill="#000000" fill-rule="nonzero" fill-opacity="1"></path><polyline clip-path="url(#clip440)" style="stroke:#d55e00; stroke-linecap:round; stroke-linejoin:round; stroke-width:4; stroke-opacity:1; fill:none" points="1744.74,248.629 1886.09,248.629 "></polyline>
<path clip-path="url(#clip440)" d="M1909.65 231.349 L1915.95 231.349 L1931.27 260.261 L1931.27 231.349 L1935.81 231.349 L1935.81 265.909 L1929.51 265.909 L1914.19 236.997 L1914.19 265.909 L1909.65 265.909 L1909.65 231.349 Z" fill="#000000" fill-rule="nonzero" fill-opacity="1"></path><path clip-path="url(#clip440)" d="M1942.78 251.024 L1955.26 251.024 L1955.26 254.821 L1942.78 254.821 L1942.78 251.024 Z" fill="#000000" fill-rule="nonzero" fill-opacity="1"></path><path clip-path="url(#clip440)" d="M1972.64 234.427 Q1969.03 234.427 1967.2 237.992 Q1965.39 241.534 1965.39 248.663 Q1965.39 255.77 1967.2 259.335 Q1969.03 262.876 1972.64 262.876 Q1976.27 262.876 1978.08 259.335 Q1979.91 255.77 1979.91 248.663 Q1979.91 241.534 1978.08 237.992 Q1976.27 234.427 1972.64 234.427 M1972.64 230.724 Q1978.45 230.724 1981.5 235.33 Q1984.58 239.913 1984.58 248.663 Q1984.58 257.39 1981.5 261.997 Q1978.45 266.58 1972.64 266.58 Q1966.83 266.58 1963.75 261.997 Q1960.69 257.39 1960.69 248.663 Q1960.69 239.913 1963.75 235.33 Q1966.83 230.724 1972.64 230.724 Z" fill="#000000" fill-rule="nonzero" fill-opacity="1"></path></svg>